<svg version="1" xmlns="http://www.w3.org/2000/svg" width="426.667" height="426.667" viewBox="0 0 320.000000 320.000000"><path d="M0 160v160h141.9l.7-3.4c.7-4.3 0-5.6-3.2-5.6-3.7 0-2.9-2.3 2-5.7 2.5-1.8 5.3-4.4 6.3-6 1-1.5 3.3-4.3 5-6.1 1.9-1.9 3.7-5.1 4.4-7.7.7-2.8 2.5-5.9 4.8-8.3 5.7-5.8 8.9-10.5 10.5-15 1.8-5 1.2-5.6-7.5-6.7-6.5-.8-6.5-.8-10.2-5.8-1.6-2.1-4.6-5-6.8-6.4-3.4-2.2-4.3-2.4-6.4-1.5-2.3 1.1-2.5 1.7-2.5 8.4 0 4-.8 10.1-1.8 13.5l-1.7 6.2-3.4-3.4c-1.9-1.9-4-3.5-4.8-3.5-.9 0-3 3.4-5.1 8-2 4.4-3.9 8-4.3 8-.4 0-1.2-1.4-1.8-3-1.2-3.5-3.5-3.9-5.1-.9-.9 1.7-1.4 1.8-2.6.8-1.8-1.5-3.4.2-3.4 3.7 0 1.2-.7 2.7-1.5 3.4-.9.7-1.5 2.9-1.5 5.1 0 2.2-.4 3.9-1 3.9-.5 0-2.5-1.4-4.5-3.1-1.9-1.7-4.1-2.9-4.9-2.6-1.9.8-3.1 8.9-1.7 11.5 1.6 2.9 1.4 3.2-1.5 3.2-3.5 0-11.4-7.7-11.4-11.1 0-1.3-.7-4.5-1.5-7.1-.8-2.6-1.7-7.5-2.1-10.8-.4-3.3-1-6-1.4-6-.5 0-1.4 1.5-2 3.2l-1.3 3.3-.8-4c-2.6-13.3-4.7-27.6-4.7-31.7.1-3.6-.4-5.3-2.5-7.7-1.4-1.8-2.9-4.8-3.3-6.9-1.2-6.4-3.4-11.6-5.7-13.4l-2.2-1.8h2.8c1.5 0 2.7-.4 2.7-.8 0-.5-1.2-1.5-2.7-2.1l-2.8-1.3 2.2-1.5c2.5-1.7 3.1-4.2 1.1-4.4-.7 0-3.2 0-5.5.1-3.6.1-5-.5-9.6-4.2-3-2.4-6.6-5.2-8.1-6.3-1.8-1.3-2.7-3-2.7-5-.1-1.7-.7-5.3-1.4-8-.7-2.8-1.5-8.4-1.9-12.6-.5-6.9-.3-7.8 2-11.3 2.6-3.7 2.6-4.3 2.8-21 .2-17.5.8-20.4 5.1-25.6.7-.8 1.5-2.8 1.9-4.4.4-1.7 2.2-5.5 4.1-8.7 1.8-3.1 3.6-6.7 4-8 .4-1.3 1.6-4.1 2.7-6.3 1.1-2.1 2.8-6.9 3.8-10.7 1.5-5.8 2.5-7.7 6.3-11.2 2.7-2.5 4.7-5.5 5.2-7.4.6-3.2 1.9-4 9.9-5.8 1.6-.3 4.5-1.7 6.5-3.1 2-1.3 7.3-3.5 11.7-4.9 4.5-1.4 8.7-3.2 9.5-4.1 2.6-3.1 5.8-3.5 15-1.9 4.9.8 10.1 1.5 11.7 1.5 5.5 0 10.1 2.1 14.9 6.8 5.8 5.8 20 16 26.8 19.4 9.7 4.9 35.1 4.4 46.4-.8 3.1-1.4 7.8-3 10.6-3.5 2.7-.5 7.7-2 11.1-3.4 3.4-1.4 7.6-2.5 9.2-2.5 1.7 0 5.9-.9 9.4-2 10.4-3.3 22.4-2 28.8 2.9l2.5 2-4.4-.6c-6.6-.9-4.3 1.2 2.9 2.6 8.5 1.7 25.6 8.6 31.3 12.7L320 65V0H0v160z"/><path d="M98.5 48c-.3.5 2.6 3 6.5 5.6 3.8 2.6 7 5.2 7 5.9 0 .7 2 2.9 4.4 4.9 5.9 4.8 8.9 11 8 16.7-.6 4.1-3.4 12.9-6.5 20.6-1.2 2.9-1.1 3.5.7 6 2.6 3.4 7.8 5.3 16.6 6 8.2.7 10.6-.6 13.8-7.2 1.9-3.9 2.1-5.8 1.8-14.3-.3-9.2-.5-10.2-4.9-19.2-8.2-16.7-14.7-22.2-29.6-24.6-10.2-1.6-16.9-1.8-17.8-.4zM314 65.9c0 .8 4.3 4.1 5.5 4.1 1.7 0 .1-3.2-2.1-4-3.1-1.2-3.4-1.2-3.4-.1zM259.5 308c-2.7.5-7.6.9-10.7.9-5.6.1-5.8.2-8.8 4.6-1.7 2.4-3.8 4.9-4.8 5.4-1.2.7 10.5 1 36.8 1l38.5-.1-5.1-2.4c-3.2-1.5-8.3-2.7-13.5-3.3-6-.6-10.2-1.8-14.9-4-6.6-3.2-8.8-3.4-17.5-2.1z"/></svg>